<?xml version="1.0" encoding="iso-8859-1"?>
<!-- Generator: Adobe Illustrator 19.0.0, SVG Export Plug-In . SVG Version: 6.00 Build 0)  -->
<svg version="1.1" id="Layer_1" xmlns="http://www.w3.org/2000/svg" xmlns:xlink="http://www.w3.org/1999/xlink" x="0px" y="0px"
	 viewBox="0 0 512 512" style="enable-background:new 0 0 512 512;" xml:space="preserve">
<g>
	<g>
		<circle cx="195.406" cy="102.437" r="49.528"/>
	</g>
</g>
<g>
	<g>
		<path d="M399.667,423.132l-1.135-15.985c-0.446-6.291-3.513-12.107-8.452-16.03l-23.215-18.434
			c-6.022-4.782-16.016-5.74-23.658,3.884c-9.882-7.846-15.674-12.448-25.306-20.094c1.781-9.775-2.3-20.108-11.158-25.849
			l-93.464-60.585l-51.282-72.274l37.774,32.523l5.576-13.796c6.841-16.926-1.335-36.193-18.26-43.034l-55.997-22.632
			c-16.967-6.857-36.294,1.388-43.083,18.385l-61.47,153.875c-7.779,19.474-0.061,41.705,18.111,52.169l39.891,22.969
			c-40.781,0-31.839,0-54.106,0C13.625,398.223,0,411.849,0,428.656c0,16.808,13.625,30.433,30.433,30.433
			c10.259,0,172.384,0,182.593,0c31.955,0,42.217-43.296,13.651-57.633L87.971,331.844l65.139,13.899l8.557-21.171l-41.054-97.444
			l54.096,76.239c1.859,2.619,4.197,4.862,6.892,6.608l97.542,63.229c8.69,5.633,19.615,5.316,27.874-0.186
			c8.181,6.497,14.484,11.502,23.924,18.997l-1.021,1.287c-5.534,6.968-4.37,17.102,2.598,22.636l23.214,18.435
			c4.94,3.923,11.299,5.591,17.529,4.6l15.827-2.517C395.535,435.431,400.13,429.645,399.667,423.132z"/>
	</g>
</g>
<g>
	<g>
		<path d="M507.987,343.79c-14.331,0.97-30.383,6.567-42.698,16.271c2.361-20.083,7.882-32.215,11.777-38.555
			c2.248-3.659,1.853-8.348-0.981-11.574l-0.098-0.111c-4.339-4.939-12.24-4.268-15.683,1.335c-2.525,4.107-5.31,9.598-7.836,16.666
			c-7.188-10.29-18.268-19.684-29.402-25.199c-3.757-1.862-8.195,3.219-3.204,6.945c2.011,1.518,4.543,3.708,7.021,6.215
			c24.506,24.528,17.555,43.632,17.56,64.966c-9.542-7.721-23.567-14.415-37.92-16.493c-4.139-0.602-6.736,5.42-0.889,7.596
			c36.854,13.713,41.515,45.925,41.603,46.552c-13.176,5.712-23.333,20.696-26.192,33.711c-0.786,3.582,1.944,6.975,5.615,6.975
			h63.214c3.679,0,6.397-3.415,5.615-6.975c-3.02-13.752-14.189-29.707-28.461-34.591c-1.384-9.471-2.216-18.149-2.608-26.083
			c1.771-4.367,4.974-19.778,25.802-32.287c5.887-3.491,12.428-6.298,18.96-7.944C513.602,350.084,512.535,343.48,507.987,343.79z"
			/>
	</g>
</g>
<g>
</g>
<g>
</g>
<g>
</g>
<g>
</g>
<g>
</g>
<g>
</g>
<g>
</g>
<g>
</g>
<g>
</g>
<g>
</g>
<g>
</g>
<g>
</g>
<g>
</g>
<g>
</g>
<g>
</g>
</svg>
